<svg t="1587294630855" class="icon" viewBox="0 0 1024 1024" version="1.1" xmlns="http://www.w3.org/2000/svg" p-id="5439" width="200" height="200"><path d="M506.8 107.1c-220.7 0-399.7 179-399.7 399.7s179 399.7 399.7 399.7 399.7-179 399.7-399.7-178.9-399.7-399.7-399.7z m-99.9 299.8c0-55.2 44.7-100 100-100s100 44.7 100 100v33.3c0 55.2-44.7 100-100 100s-100-44.7-100-100v-33.3z m-199.8 78.6v-23.8c0-39.5 29.8-71.4 66.6-71.4s66.6 32 66.6 71.4v23.8c0 39.5-29.8 71.4-66.6 71.4-36.8-0.1-66.6-32.1-66.6-71.4z m532.9 259c-60 58.9-142.4 95.4-233.1 95.4-90.9 0-173.1-36.5-233.1-95.4v-21.2c0-73.6 59.7-133.3 133.3-133.3H607c73.6 0 133.3 59.7 133.3 133.3v21.2h-0.3z m0-187.7c-36.8 0-66.6-32-66.6-71.4v-23.8c0-39.5 29.8-71.4 66.6-71.4s66.6 32 66.6 71.4v23.8c0 39.4-29.8 71.4-66.6 71.4z" p-id="5440"></path></svg>