<svg t="1587294114658" class="icon" viewBox="0 0 1024 1024" version="1.1" xmlns="http://www.w3.org/2000/svg" p-id="3345" width="200" height="200"><path d="M599.5 775.6l-28.9-28.9 11.5 11.5c10.3 9.2 26.1 8.8 36-1.1l-18.6 18.5zM484 891.8l-29-28.9 11.5 11.5c10.3 9.2 26.1 8.8 36-1.1L484 891.8zM137.7 544.7l28.9-28.9-11.5 11.5c-9.2 10.3-8.8 26.1 1.1 36l-18.5-18.6zM671.7 211.8c-77.3 0-140 62.7-140 140s62.7 140 140 140 140-62.7 140-140-62.7-140-140-140z m0 198.1c-32.1 0-58.1-26-58.1-58.1s26-58.1 58.1-58.1 58.1 26 58.1 58.1-26 58.1-58.1 58.1z" fill="#242424" p-id="3346"></path><path d="M980.2 488.5V88.7c0-22.6-18.3-41-41-41H535.7c-13 0-24.6 6.1-32.1 15.5l-438 438c-20.7 25-20.8 61.2-0.4 86.3L440 962.4c25.3 21.4 62.4 21.4 87.7 0.1l26.3-26.3c16-16 16-41.9 0-57.9s-41.9-16-57.9 0L484 890.4 138.1 544.6l415-415h345.2v346.5L599.5 774.9 333.1 508.5c-16-16-41.9-16-57.9 0s-16 41.9 0 57.9l238 238 37.6 37.6c0.3 0.3 0.6 0.7 1 1 24.4 24.4 62.7 26.4 89.4 6l327.2-327.2c9.1-9.1 13-21.5 11.8-33.3z" fill="#242424" p-id="3347"></path></svg>