<?xml version="1.0" standalone="no"?><!DOCTYPE svg PUBLIC "-//W3C//DTD SVG 1.1//EN" "http://www.w3.org/Graphics/SVG/1.1/DTD/svg11.dtd"><svg t="1581494267690" class="icon" viewBox="0 0 1024 1024" version="1.1" xmlns="http://www.w3.org/2000/svg" p-id="4903" xmlns:xlink="http://www.w3.org/1999/xlink" width="200" height="200"><defs><style type="text/css"></style></defs><path d="M608 640a32 32 0 0 1 32 32v192c0 52.928-43.072 96-96 96H160c-52.928 0-96-43.072-96-96V160c0-52.928 43.072-96 96-96h384c52.928 0 96 43.072 96 96v192a32 32 0 1 1-64 0V160c0-17.632-14.336-32-32-32H160c-17.632 0-32 14.368-32 32v704c0 17.632 14.368 32 32 32h384c17.664 0 32-14.368 32-32v-192a32 32 0 0 1 32-32z m320-160c17.632 0 32 14.4 32 32s-14.368 32-32 32H365.12l105.6 105.28c12.512 12.48 12.512 32.96 0 45.44A32.64 32.64 0 0 1 448 704c-8.32 0-16.32-3.2-22.72-9.28l-160-160c-12.48-12.48-12.48-32.96 0-45.44l160-160c12.512-12.48 32.96-12.48 45.44 0 12.512 12.48 12.512 32.96 0 45.44L365.12 480H928z" p-id="4904" fill="#ffffff"></path></svg>