<svg t="1583047644721" class="icon" viewBox="0 0 1024 1024" version="1.1" xmlns="http://www.w3.org/2000/svg" p-id="2690" width="200" height="200"><path d="M478.717989 607.900164c0 0-33.596166-11.689227-33.596166-39.466873 0-15.567557 0-39.251979 0-56.041364 29.986965-19.249413 53.922097-47.098691 68.178799-80.155575 2.62171 0.287549 5.225001 0.808412 7.918343 0.808412 40.922015 0 74.104765-33.18275 74.104765-74.068949 0-38.874379-30.058596-70.405513-68.142983-73.493851-6.876618-92.743264-84.159772-165.896354-178.644703-165.896354-94.484931 0-171.73227 73.134671-178.644703 165.860539-38.228673 2.926656-68.448952 34.529421-68.448952 73.529667 0 40.903595 33.18275 74.068949 74.087369 74.068949 2.837628 0 5.529947-0.520863 8.260128-0.825808 14.275121 33.165354 38.300304 61.050448 68.394716 80.317257 0 16.789385 0 40.382733 0 55.915497 0 27.760251-33.596166 39.467897-33.596166 39.467897S2.25332 662.002362 2.25332 787.695063c0 133.036969 311.23244 114.990964 343.517751 112.74583 32.82357 2.24411 349.31785 20.290115 349.31785-112.74583C695.070502 661.966547 478.717989 607.900164 478.717989 607.900164zM279.226492 413.490406c-30.075992 0-54.44296-24.365944-54.44296-54.461379 0-30.058596 24.365944-54.44296 54.44296-54.44296l138.854465 0c30.058596 0 54.44296 24.365944 54.44296 54.44296 0 30.094412-24.384363 54.461379-54.44296 54.461379L279.226492 413.490406z" p-id="2691"></path><path d="M825.485761 164.457586c84.070744 0 152.447041 62.289672 152.447041 138.836045 0 64.10297-47.65537 119.53342-116.03269 134.850268-13.269211 3.016707-40.688701 13.233396-79.491449 29.573549-7.451716-23.235191-22.840194-38.533618-35.050284-45.177945-45.859467-25.012673-74.356498-70.711482-74.356498-119.264291C673.021324 226.747257 741.41604 164.457586 825.485761 164.457586M825.485761 119.567189c-108.974947 0-197.354833 82.256422-197.354833 183.726441 0 67.658959 39.287795 126.770242 97.734952 158.659533 5.296633 2.89084 31.56695 26.430976 2.980891 78.144778 113.518427-50.995441 139.285277-57.3338 142.984528-58.178027 86.6198-19.410072 150.992923-92.024903 150.992923-178.627307C1022.823198 201.823612 934.461731 119.567189 825.485761 119.567189L825.485761 119.567189z" p-id="2692"></path></svg>